<svg xmlns="http://www.w3.org/2000/svg" viewBox="0 0 522.47 511.33"><defs><style>.a{fill:#4285f5;}.b{fill:#fff;}</style></defs><title>kube-state</title><path class="a" d="M323.07,144.67c-9.33-4.49-24.6-4.49-33.93,0L110.79,230.56c-9.33,4.49-18.85,16.43-21.16,26.53l-44,193c-2.3,10.1,1.09,25,7.55,33.08L176.56,637.91c6.46,8.1,20.21,14.72,30.57,14.72H405.08c10.36,0,24.11-6.62,30.57-14.72L559.06,483.15c6.46-8.1,9.85-23,7.55-33.08l-44-193c-2.3-10.1-11.82-22-21.16-26.53Z" transform="translate(-44.87 -141.3)"/><path class="b" d="M306.14,375.59c-69,0-124.85-19.65-124.85-43.89V517.84c0,24.24,55.9,43.89,124.85,43.89S431,542.08,431,517.84V331.7C431,355.94,375.1,375.59,306.14,375.59Z" transform="translate(-44.87 -141.3)"/><ellipse class="b" cx="261.19" cy="171.41" rx="124.85" ry="43.89"/></svg>
