<?xml version="1.0" encoding="utf-8"?>
<svg version="1.2" baseProfile="tiny" id="Layer_8" xmlns="http://www.w3.org/2000/svg" xmlns:xlink="http://www.w3.org/1999/xlink"
	 x="0px" y="0px" viewBox="0 0 612 792" xml:space="preserve">
<g>
	<path fill="#4574B4" d="M257.94,283.51l1.03-2.9c0.15-1.49,0.55-6.93-1.51-8.87c-2.6-2.46-23.17-20.68-41.28-36.73
		c-10.72,17.35-16.91,37.79-16.91,59.67c0,3.92,0.2,7.8,0.59,11.62c23.19-6.58,49.37-14,52.75-15.08
		C255.73,290.22,257.94,283.51,257.94,283.51z"/>
	<path fill="#4574B4" d="M287.78,244.48l1.41-0.92c0,0,6.05-3.64,6.33-6.92c0.3-3.54,1.71-30.66,2.95-54.71
		c-24.95,3.17-47.37,14.43-64.56,31.06c19.65,14.07,41.92,30.02,44.89,32C281.15,246.55,286.36,244.96,287.78,244.48z"/>
	<polygon fill="#4574B4" points="298.21,305.49 312.93,312.58 327.65,305.49 331.29,289.56 321.1,276.78 304.76,276.78
		294.57,289.56 	"/>
	<path fill="#4574B4" d="M573.44,338.88L529.39,145.9c-2.3-10.1-11.82-22.03-21.16-26.53L329.89,33.49c-9.33-4.49-24.6-4.49-33.93,0
		l-178.34,85.89c-9.33,4.49-18.85,16.43-21.16,26.53L52.42,338.88c-2.3,10.1,1.09,24.98,7.55,33.08l123.42,154.76
		c6.46,8.1,20.21,14.72,30.57,14.72H411.9c10.36,0,24.11-6.62,30.57-14.72l123.42-154.76C572.35,363.87,575.74,348.98,573.44,338.88
		z M510.06,339.37c-3.6,15.75-21.99,5.64-24.96,4.96s-17.47-7.29-21.66-7.21c-4.19,0.09-5.79,2.5-5.83,2.67
		c-0.01,0.03-3.63-0.58-9.42-1.58c-10.62,33.03-33.01,60.79-62.23,78.34c2.28,5.46,3.69,8.88,3.66,8.9
		c-0.15,0.07-2.16,2.17-1.31,6.28s10.52,16.77,11.84,19.52c1.32,2.75,15.27,18.43,0.71,25.44c-14.56,7.01-18.11-13.68-19.44-16.43
		c-1.32-2.75-5.19-18.2-7.87-21.43c-2.68-3.23-5.57-2.97-5.72-2.89c-0.03,0.02-1.81-3.2-4.64-8.35
		c-15.63,5.91-32.57,9.16-50.27,9.16c-17.48,0-34.22-3.16-49.69-8.94c-2.84,5.18-4.63,8.41-4.66,8.39
		c-0.15-0.07-3.04-0.33-5.72,2.89c-2.68,3.23-6.54,18.68-7.87,21.43c-1.32,2.75-4.88,23.43-19.44,16.43
		c-14.56-7.01-0.61-22.69,0.71-25.44c1.32-2.75,10.99-15.41,11.84-19.52c0.85-4.11-1.16-6.2-1.31-6.28
		c-0.03-0.02,1.37-3.41,3.64-8.85c-29.31-17.43-51.8-45.09-62.57-78.06c-5.82,1-9.47,1.62-9.47,1.58c-0.04-0.17-1.63-2.58-5.83-2.67
		c-4.19-0.09-18.69,6.53-21.66,7.21s-21.37,10.79-24.96-4.96s17.36-14.62,20.34-15.3s18.9-1.01,22.64-2.91
		c3.74-1.9,4.13-4.77,4.09-4.93c-0.01-0.03,3.53-1.06,9.19-2.67c-0.87-6.37-1.33-12.87-1.33-19.47c0-29.13,8.77-56.21,23.81-78.75
		c-4.23-3.76-6.85-6.11-6.83-6.14c0.11-0.13,1-2.89-1.55-6.22c-2.55-3.33-16.75-10.54-19.14-12.44s-21.76-9.98-11.69-22.61
		c10.07-12.63,22.25,4.46,24.64,6.36s12.57,14.15,16.39,15.89s6.3,0.26,6.41,0.12c0.02-0.03,2.92,2.03,7.58,5.35
		c23.04-23.97,54.42-39.87,89.47-43.04c0.32-5.92,0.53-9.62,0.57-9.62c0.17,0,2.88-1.02,3.9-5.09c1.02-4.07-2.2-19.67-2.2-22.72
		c0-3.05-5.77-23.23,10.39-23.23s10.39,20.18,10.39,23.23c0,3.05-3.22,18.65-2.2,22.72c1.02,4.07,3.73,5.09,3.9,5.09
		c0.03,0,0.25,3.68,0.56,9.56c35.35,3.04,67,19.02,90.19,43.19c4.83-3.44,7.85-5.58,7.87-5.56c0.11,0.13,2.59,1.62,6.41-0.12
		c3.82-1.74,14-13.99,16.39-15.89s14.57-18.99,24.64-6.36s-9.3,20.7-11.69,22.61s-16.59,9.11-19.14,12.44s-1.65,6.09-1.55,6.22
		c0.02,0.03-2.72,2.48-7.12,6.4c14.98,22.51,23.71,49.53,23.71,78.6c0,6.39-0.43,12.69-1.25,18.86c5.69,1.63,9.25,2.65,9.24,2.69
		c-0.04,0.17,0.35,3.04,4.09,4.93c3.74,1.9,19.67,2.23,22.64,2.91S513.65,323.62,510.06,339.37z"/>
	<path fill="#4574B4" d="M336.06,243.56l2.29,0.77c1.21,0.42,6.68,2.16,9.1,0.54c2.95-1.97,25.02-17.77,44.6-31.79
		c-17.35-16.82-40.03-28.16-65.28-31.23c1.25,24.07,2.66,51.24,2.96,54.78C330.01,239.92,336.06,243.56,336.06,243.56z"/>
	<path fill="#4574B4" d="M268.37,329.21c0,0-4.9-5.09-8.15-4.63c-3.52,0.5-30.28,5.16-54.01,9.3c8.6,23.4,24.67,43.18,45.32,56.47
		c9.31-22.23,19.83-47.33,21.09-50.65c1.01-2.65-1.73-7.4-2.5-8.66L268.37,329.21z"/>
	<path fill="#4574B4" d="M314.96,350.86l-1.6,0.07l-1.6,0.16c-1.49,0.19-6.87,1.01-8.3,3.45c-1.81,3.06-14.84,26.89-26.4,48.03
		c11.28,3.75,23.33,5.78,35.87,5.78c12.76,0,25.02-2.1,36.47-5.98c-11.57-21.15-24.63-45.04-26.44-48.1
		C321.61,351.98,316.78,351.11,314.96,350.86z"/>
	<path fill="#4574B4" d="M368.78,271.63c-2.12,2-1.6,7.32-1.38,9.05l0.43,1.62l0.44,1.21c0.63,1.67,2.56,6.29,5.12,7.1
		c3.38,1.08,29.5,8.48,52.67,15.06c0.35-3.62,0.53-7.28,0.53-10.99c0-21.83-6.16-42.21-16.82-59.52
		C391.73,251.14,371.37,269.19,368.78,271.63z"/>
	<path fill="#4574B4" d="M358.08,328.15l-1.22,1.61l-0.73,1.27c-0.93,1.56-3.29,5.91-2.34,8.39c1.26,3.32,11.76,28.36,21.06,50.58
		c20.57-13.39,36.54-33.26,45.01-56.71c-23.75-4.14-50.57-8.82-54.09-9.31C363.12,323.61,359.37,326.92,358.08,328.15z"/>
</g>
</svg>
